<?xml version="1.0" encoding="utf-8" ?>
<svg xmlns="http://www.w3.org/2000/svg" xmlns:xlink="http://www.w3.org/1999/xlink" width="13" height="11">
	<path fill="rgb(255,255,255)" stroke="none" transform="matrix(0.94 0 0 0.94 -0.0297852 0.0226898)" d="M6.2297 2.81711L6.25751 3.27515L5.79399 3.21907C4.10678 3.00406 2.63279 2.27493 1.38129 1.05035L0.769442 0.442738L0.611845 0.891437C0.278111 1.89166 0.49133 2.94798 1.18661 3.65842C1.55742 4.05103 1.47399 4.10712 0.834334 3.87342C0.611845 3.79864 0.417167 3.74255 0.398626 3.77059C0.333734 3.83603 0.556223 4.68669 0.73236 5.02321C0.97339 5.49061 1.46472 5.94865 2.0024 6.21974L2.45665 6.43475L1.91897 6.44409C1.39983 6.44409 1.38129 6.45344 1.43691 6.64975C1.62232 7.25736 2.35468 7.90237 3.17047 8.1828L3.74523 8.37911L3.24463 8.67824C2.503 9.10825 1.63159 9.35129 0.760171 9.36999C0.343004 9.37934 0 9.41673 0 9.44477C0 9.53825 1.13099 10.0617 1.78918 10.2674C3.76378 10.875 6.10918 10.6133 7.87055 9.57564C9.12206 8.83716 10.3736 7.36954 10.9576 5.94865C11.2728 5.19147 11.588 3.80798 11.588 3.14428C11.588 2.71428 11.6158 2.65819 12.1349 2.14406C12.4409 1.84492 12.7282 1.51775 12.7839 1.42427C12.8766 1.24666 12.8673 1.24666 12.3945 1.40557C11.6065 1.68601 11.4953 1.64862 11.8846 1.22796C12.172 0.928829 12.515 0.38665 12.515 0.227736C12.515 0.199692 12.376 0.246432 12.2184 0.330563C12.0515 0.424042 11.6807 0.564261 11.4026 0.648392L10.902 0.807306L10.4477 0.498825C10.1974 0.330563 9.84515 0.143605 9.65974 0.0875174C9.18695 -0.0433532 8.46386 -0.0246574 8.03742 0.124909C6.87862 0.545565 6.14626 1.62992 6.2297 2.81711Z"/>
</svg>
